<svg width="14" height="28" viewBox="0 0 14 28" fill="none" xmlns="http://www.w3.org/2000/svg">
	<path
		fill-rule="evenodd"
		clip-rule="evenodd"
		d="M9.36091 28C8.7826 27.9998 8.21132 27.8732 7.68701 27.6292C7.1627 27.3852 6.69802 27.0296 6.32545 26.5873C7.13362 25.9638 8.15194 25.6779 9.16651 25.7894C10.1811 25.9009 11.113 26.4013 11.7664 27.1855C11.0743 27.7156 10.2263 28.0019 9.35455 28H9.36091ZM11.1045 23.3864C11.1035 22.5167 11.3899 21.671 11.9191 20.9809C12.7001 21.6362 13.1986 22.5671 13.3112 23.5803C13.4238 24.5935 13.1417 25.6111 12.5236 26.4218C12.0802 26.0499 11.7234 25.5854 11.4782 25.0611C11.2331 24.5368 11.1056 23.9652 11.1045 23.3864ZM5.19909 24.4936C4.63887 24.344 4.11831 24.0732 3.67411 23.7005C3.2299 23.3277 2.87287 22.8621 2.62818 22.3364C3.57082 21.948 4.62693 21.9384 5.5765 22.3094C6.52607 22.6805 7.29584 23.4036 7.72546 24.3282C6.94909 24.6464 6.07091 24.7227 5.19909 24.4936ZM8.08182 20.4845C8.30682 19.6471 8.801 18.907 9.48818 18.3782C10.0718 19.2134 10.3114 20.2412 10.1574 21.2483C10.0033 22.2555 9.46744 23.1647 8.66091 23.7873C8.32894 23.3125 8.10506 22.7708 8.00501 22.2001C7.90496 21.6295 7.93118 21.0439 8.08182 20.4845ZM1.44455 19.7718C0.998052 19.4037 0.637419 18.9424 0.387894 18.4203C0.138368 17.8981 0.00598108 17.3278 0 16.7491C1.02036 16.7836 1.98778 17.2117 2.69955 17.9436C3.41131 18.6755 3.81219 19.6545 3.81818 20.6755C2.94909 20.6436 2.11477 20.326 1.44455 19.7718ZM5.72727 17.3282C6.3 16.6282 7.07 16.1827 7.89091 15.9918C8.07614 16.9953 7.86729 18.0316 7.30783 18.885C6.74837 19.7384 5.88138 20.3433 4.88727 20.5736C4.78172 20.0042 4.80223 19.4185 4.94736 18.8578C5.09248 18.297 5.35869 17.7749 5.72727 17.3282ZM0.763636 14.1909C0.427593 13.7192 0.198784 13.1798 0.0932526 12.6104C-0.0122792 12.0409 0.00802007 11.4553 0.152727 10.8945C1.12918 11.1918 1.95275 11.8553 2.45096 12.7462C2.94917 13.637 3.08337 14.6861 2.82545 15.6736C1.99377 15.4197 1.26905 14.8985 0.763636 14.1909ZM5.53636 12.9373C6.24413 12.4326 7.09854 12.1754 7.96727 12.2055C7.88445 13.2209 7.41388 14.1655 6.65318 14.8433C5.89249 15.521 4.90006 15.8799 3.88182 15.8455C3.92847 15.2684 4.10074 14.7085 4.38654 14.2051C4.67235 13.7016 5.06479 13.2667 5.53636 12.9309V12.9373ZM1.34909 8.52727C1.17904 7.97328 1.1325 7.38874 1.21277 6.81482C1.29303 6.24089 1.49813 5.69155 1.81364 5.20545C2.64451 5.79711 3.21444 6.68712 3.4042 7.68931C3.59397 8.69151 3.38887 9.72827 2.83182 10.5827C2.12565 10.0786 1.60469 9.35641 1.34909 8.52727ZM6.27455 8.84545C7.10435 8.59269 7.99421 8.61952 8.80727 8.92182C8.40802 9.8595 7.66301 10.6074 6.72688 11.0103C5.79076 11.4132 4.73544 11.4401 3.78 11.0855C4.00805 10.5539 4.34945 10.0787 4.78033 9.69284C5.21121 9.30703 5.72117 9.02 6.27455 8.85182V8.84545ZM3.76727 4.00273C3.62091 2.79364 4.03455 1.64818 4.80455 0.820909C5.51798 1.54933 5.92281 2.52497 5.93466 3.5445C5.94652 4.56404 5.56449 5.54882 4.86818 6.29364C4.25895 5.67207 3.87195 4.86676 3.76727 4.00273ZM8.55909 5.18636C9.42121 5.0834 10.2933 5.26675 11.0409 5.70818C10.4821 6.56092 9.6167 7.16605 8.62397 7.39824C7.63124 7.63043 6.58723 7.47189 5.70818 6.95545C6.02547 6.47037 6.4451 6.06064 6.93761 5.75501C7.43012 5.44939 7.98357 5.2553 8.55909 5.18636ZM9.17636 0.852727C9.85641 0.31381 10.6951 0.0141015 11.5627 0C11.5317 1.01945 11.1091 1.98774 10.3826 2.70358C9.65606 3.41942 8.68162 3.82774 7.66182 3.84364C7.68046 3.26473 7.82573 2.69694 8.08739 2.18021C8.34905 1.66348 8.72076 1.21036 9.17636 0.852727Z"
		fill="#333B40"></path>
</svg>
