<svg width="16" height="19" viewBox="0 0 16 19" fill="none" xmlns="http://www.w3.org/2000/svg">
	<path
		d="M13.3258 9.92586C13.3873 12.7868 15.9085 13.721 15.97 13.721C15.9085 13.7794 15.5395 15.064 14.6171 16.3485C13.8177 17.5162 12.9568 18.6256 11.604 18.6256C10.3126 18.684 9.88219 17.8666 8.34486 17.8666C6.80754 17.8666 6.37708 18.5672 5.14721 18.6256C3.85586 18.684 2.87197 17.3994 2.07256 16.2317C0.412247 13.9546 -0.9406 9.69232 0.842699 6.83134C1.7036 5.37165 3.24093 4.55423 4.90125 4.49584C6.1926 4.43745 7.36096 5.31326 8.16037 5.31326C8.95978 5.31326 10.3741 4.32067 11.9115 4.43745C12.5879 4.49584 14.3712 4.67099 15.4781 6.30583C15.3551 6.42261 13.3258 7.59036 13.3258 9.92586ZM10.8661 2.97776C11.5425 2.21873 12.0344 1.05097 11.9115 0C10.9276 0.0583874 9.69771 0.642258 9.02129 1.40129C8.40636 2.10194 7.85291 3.2113 7.9759 4.32067C9.02128 4.37905 10.1897 3.79519 10.8661 2.97776Z"
		fill="#333B40"></path>
</svg>
