<svg version="1.1" id="Layer_1" xmlns="http://www.w3.org/2000/svg" xmlns:xlink="http://www.w3.org/1999/xlink" x="0px" y="0px"
	 width="100%" viewBox="0 0 555 160" enable-background="new 0 0 555 160" xml:space="preserve">
<path fill="#010101" opacity="1.000000" stroke="none" 
	d="
M556.000000,146.000000 
	C556.000000,146.444443 556.000000,146.888901 555.652588,147.754822 
	C553.164856,154.831802 548.220093,158.577484 542.000000,161.000000 
	C365.976685,161.000000 189.953354,161.000000 13.370861,160.651001 
	C8.874466,157.201324 4.937233,154.100662 1.000000,151.000000 
	C1.000000,104.643341 1.000000,58.286682 1.352875,11.471474 
	C5.470500,7.675281 9.235250,4.337641 13.000000,1.000000 
	C189.023315,1.000000 365.046631,1.000000 541.639771,1.357413 
	C549.930542,2.900238 553.074036,8.837230 556.000000,15.000000 
	C556.000000,15.000000 556.000000,15.500000 555.690063,16.032745 
	C555.256470,17.212135 555.024963,17.858732 555.024658,18.505440 
	C555.005371,59.782429 554.996277,101.059433 555.044495,142.336380 
	C555.045959,143.557953 555.667542,144.778809 556.000000,146.000000 
M105.718460,57.571972 
	C89.627121,48.242832 73.589104,38.819977 57.422890,29.622444 
	C48.798233,24.715574 41.439972,27.619225 38.249680,37.422016 
	C38.169048,38.248432 38.018379,39.074806 38.017933,39.901264 
	C38.003311,67.015533 37.992062,94.129814 38.031258,121.244026 
	C38.033360,122.700775 38.477390,124.156876 38.796005,126.272209 
	C42.161545,134.231934 48.857086,137.183945 56.049438,133.123581 
	C72.835976,123.646950 89.412666,113.798622 106.766533,103.978485 
	C113.798424,99.936562 120.896439,96.004547 127.845154,91.824356 
	C136.179611,86.810524 136.642609,76.054848 128.544128,70.921303 
	C121.294655,66.325943 113.648155,62.356895 105.718460,57.571972 
M219.607971,108.966698 
	C220.342667,103.904259 221.077362,98.841820 221.824753,93.691917 
	C212.220123,93.691917 204.104279,93.691917 195.742111,93.691917 
	C195.742111,96.326492 195.742111,98.715546 195.742111,101.571495 
	C201.614273,101.571495 207.206879,101.571495 212.818817,101.571495 
	C212.331055,108.804916 207.778824,113.780418 200.407150,115.570984 
	C192.063309,117.597694 183.344482,113.930069 178.916626,106.530846 
	C174.270660,98.767105 175.040268,88.904587 181.472656,82.562683 
	C190.105804,74.050934 199.038712,74.440544 209.105530,80.922012 
	C210.938293,79.410378 212.695267,77.961243 214.438232,76.523674 
	C206.463928,68.133362 194.074020,66.165794 183.343826,71.278778 
	C172.291275,76.545372 166.177460,88.096184 167.896637,100.463020 
	C169.518555,112.130203 179.253998,121.693283 191.509460,123.657806 
	C203.415222,125.566261 213.767746,120.342697 219.607971,108.966698 
M327.901276,137.575516 
	C332.211578,135.029343 335.005615,131.156143 335.134155,126.295265 
	C335.457642,114.061287 335.241180,101.813034 335.241180,89.032684 
	C332.947632,89.241356 330.577209,89.428299 328.214783,89.688087 
	C327.425812,89.774849 326.495056,90.429466 325.904022,90.178108 
	C317.896057,86.772285 310.935638,88.158768 305.764954,94.316887 
	C300.542664,100.536400 299.589478,109.729942 304.613678,115.961823 
	C307.245422,119.226143 311.341797,122.209984 315.314728,123.234749 
	C319.144623,124.222610 323.666840,122.526497 327.833984,122.015762 
	C327.962311,126.904495 326.422363,130.176910 322.889984,131.705246 
	C318.264282,133.706635 314.630951,132.279190 309.312195,126.342781 
	C307.232391,127.250618 305.135498,128.165909 303.039398,129.080872 
	C307.704285,139.161987 316.294952,142.216904 327.901276,137.575516 
M401.987335,94.500008 
	C401.987335,103.921692 401.987335,113.343384 401.987335,122.498756 
	C405.165161,122.498756 407.579865,122.498756 410.351135,122.498756 
	C410.351135,115.875092 410.351135,109.602867 410.351135,102.990860 
	C414.691742,102.990860 418.673889,103.173134 422.633636,102.952927 
	C430.877808,102.494438 437.612152,95.833893 438.010620,87.995270 
	C438.449524,79.360481 433.068207,71.923790 424.527527,71.032562 
	C417.165161,70.264290 409.659088,70.873138 402.251434,70.873138 
	C402.145538,71.350655 402.011322,71.675400 402.010559,72.000465 
	C401.993896,79.166962 401.992035,86.333504 401.987335,94.500008 
M485.016052,108.530006 
	C485.015991,106.365662 485.064697,104.200012 485.006927,102.037209 
	C484.814117,94.817924 480.422058,89.848068 472.935303,88.320496 
	C465.181641,86.738464 458.442688,89.755554 455.416840,96.352089 
	C457.504944,97.263710 459.590118,98.174049 461.861359,99.165627 
	C464.865540,95.467499 468.770386,94.380577 472.938354,96.287369 
	C474.773407,97.126892 475.980652,99.338730 477.472931,100.927513 
	C470.793427,99.524002 465.183960,99.735138 459.804138,102.779984 
	C456.019012,104.922256 454.007538,108.212692 454.165619,112.607346 
	C454.322662,116.971863 456.470673,120.192749 460.363098,122.124619 
	C466.141571,124.992584 471.590790,124.437920 476.571503,120.118279 
	C478.227478,124.863632 481.814240,122.158180 485.016052,122.933487 
	C485.016052,118.109764 485.016052,113.812195 485.016052,108.530006 
M298.223755,108.817047 
	C299.342163,98.036209 293.350525,89.812561 283.239319,88.250679 
	C273.950775,86.815872 264.669464,93.149086 263.029938,102.040779 
	C261.109985,112.453491 266.820404,121.354813 276.810425,123.521629 
	C286.654510,125.656807 295.407837,119.945671 298.223755,108.817047 
M244.916977,123.734146 
	C246.037628,123.416275 247.186066,123.173149 248.274460,122.768509 
	C255.996384,119.897682 260.846283,111.696655 259.579285,103.711891 
	C258.144012,94.666748 251.542435,88.545143 242.789673,88.142982 
	C234.073654,87.742523 226.388580,93.050377 224.426315,101.210724 
	C221.112900,114.990028 231.755295,125.272331 244.916977,123.734146 
M370.428040,116.631851 
	C366.772034,116.384949 363.614838,115.334610 362.025116,111.436852 
	C369.838135,108.154869 377.548584,104.915962 385.221069,101.693008 
	C381.656586,91.699646 375.174011,87.051697 366.958252,88.213799 
	C358.717377,89.379463 353.145905,95.682327 352.398621,104.684792 
	C351.699097,113.112206 356.713745,120.664238 364.603455,123.065193 
	C372.813934,125.563759 380.797394,122.600174 384.660217,115.510056 
	C382.757660,114.276054 380.846497,113.036453 379.747406,112.323586 
	C376.447723,113.947594 373.854523,115.223892 370.428040,116.631851 
M513.393005,107.000244 
	C515.917786,101.183548 518.442505,95.366844 521.102844,89.237762 
	C517.691956,89.237762 515.041626,89.237762 512.162292,89.237762 
	C509.300476,96.390388 506.440430,103.538651 503.220856,111.585396 
	C500.763916,105.637665 498.641907,100.476830 496.500916,95.323914 
	C493.707733,88.601379 493.701233,88.604073 485.555664,89.576668 
	C486.186371,91.191353 486.723236,92.718552 487.370636,94.197372 
	C490.760529,101.941025 494.348694,109.604752 497.468170,117.455109 
	C498.259003,119.445267 498.185974,122.225342 497.467804,124.277809 
	C495.849152,128.903748 493.578796,133.301636 491.466461,138.032242 
	C496.674011,139.341537 500.096771,138.941437 502.157471,133.302795 
	C505.338257,124.599289 509.404846,116.219513 513.393005,107.000244 
M450.174622,119.295662 
	C450.174622,103.107910 450.174622,86.920158 450.174622,70.792236 
	C447.008026,70.792236 444.595612,70.792236 442.345306,70.792236 
	C442.345306,88.298172 442.345306,105.492638 442.345306,123.183014 
	C445.130432,121.691978 449.064728,125.319992 450.174622,119.295662 
M348.862396,98.500015 
	C348.862396,89.268837 348.862396,80.037651 348.862396,70.817642 
	C345.798920,70.817642 343.416809,70.817642 341.214905,70.817642 
	C341.214905,88.370789 341.214905,105.557404 341.214905,122.590942 
	C343.892517,122.590942 346.157410,122.590942 348.862396,122.590942 
	C348.862396,114.716751 348.862396,107.108376 348.862396,98.500015 
M184.229050,48.299770 
	C179.489517,48.816006 175.711243,47.560921 173.689072,42.797695 
	C172.119110,39.099628 172.999298,35.749454 175.660110,33.188633 
	C179.159241,29.821005 183.262878,29.886213 187.625397,31.973221 
	C188.729538,32.501438 190.531372,31.571230 192.879700,31.158964 
	C186.030853,25.654633 178.534088,25.397850 173.520172,29.606546 
	C168.818100,33.553482 167.400696,40.762161 170.330078,45.830776 
	C173.537216,51.379982 181.504211,53.935726 187.846497,51.449879 
	C193.335693,49.298397 195.553482,45.047810 194.433762,38.824825 
	C183.941864,37.476013 182.347321,37.881828 182.337921,42.451286 
	C185.028183,42.451286 187.718643,42.451286 190.409103,42.451286 
	C190.630737,42.966141 190.852386,43.480995 191.074036,43.995850 
	C189.073669,45.365559 187.073288,46.735264 184.229050,48.299770 
M282.800079,46.404171 
	C284.193451,47.787422 285.398041,49.464645 287.013550,50.501938 
	C293.291443,54.532887 302.643982,52.080826 305.994537,45.697281 
	C309.632782,38.765568 306.706451,30.287413 299.415588,27.604898 
	C294.137482,25.662931 288.835388,26.166403 284.659485,30.262962 
	C280.121735,34.714481 279.948914,40.150299 282.800079,46.404171 
M316.039032,27.276096 
	C314.538696,26.949852 313.038361,26.623608 311.043335,26.189791 
	C311.043335,34.452049 310.938232,42.086781 311.171906,49.711128 
	C311.202301,50.701904 312.979340,51.639141 313.947327,52.601177 
	C314.350830,52.262268 314.754303,51.923355 315.157776,51.584442 
	C315.157776,45.871857 315.157776,40.159275 315.157776,33.142555 
	C319.052032,39.410744 322.092957,44.666359 325.545929,49.635647 
	C326.536835,51.061687 328.718292,51.660469 330.862000,52.942436 
	C330.862000,43.207085 330.862000,34.952381 330.862000,26.697680 
	C330.386780,26.453396 329.911560,26.209112 329.436340,25.964828 
	C328.641846,27.171787 327.238861,28.341436 327.162140,29.592402 
	C326.884705,34.118031 327.052887,38.670982 327.052887,44.664326 
	C322.979553,38.168175 319.746826,33.012604 316.039032,27.276096 
M213.700287,28.410015 
	C213.124985,27.748182 212.568970,26.533251 211.971344,26.512421 
	C207.382645,26.352476 202.785828,26.424509 198.181229,26.424509 
	C198.181229,35.337391 198.181229,43.619022 198.181229,52.064091 
	C203.297882,52.064091 208.248917,52.064091 214.384903,52.064091 
	C211.446533,45.529804 205.550842,50.272747 202.206116,47.673573 
	C202.206116,45.721588 202.206116,43.610172 202.206116,41.132107 
	C205.666290,41.132107 208.944412,41.132107 212.225891,41.132107 
	C212.097534,38.016010 212.097534,38.016010 202.318924,37.050827 
	C202.318924,34.848339 202.318924,32.636070 202.318924,30.785290 
	C206.320755,30.230730 209.983749,29.723125 213.700287,28.410015 
M227.762817,40.474060 
	C227.762817,37.203796 227.762817,33.933533 227.762817,30.531435 
	C230.232193,30.355478 232.183197,30.216459 235.477341,29.981733 
	C234.189484,28.319452 233.469238,26.522276 232.651001,26.476496 
	C227.853424,26.208067 223.029373,26.259703 218.224289,26.452868 
	C217.545883,26.480137 216.922302,27.871090 216.273346,28.630842 
	C216.937286,29.176712 217.534683,30.048264 218.279083,30.200361 
	C219.808212,30.512791 221.416046,30.440041 223.298370,30.542545 
	C223.298370,37.929096 223.298370,44.845409 223.298370,52.220009 
	C225.020325,52.103065 226.367126,52.011600 227.762772,51.916821 
	C227.762772,48.087990 227.762772,44.769775 227.762817,40.474060 
M255.390793,30.273462 
	C256.859894,30.273462 258.328979,30.273462 260.279968,30.273462 
	C260.279968,37.756863 260.279968,44.820091 260.279968,52.199680 
	C262.018585,52.107761 263.256622,52.042309 264.991089,51.950611 
	C264.991089,44.617489 264.991089,37.583763 264.991089,30.276804 
	C266.476318,30.276804 267.544861,30.521479 268.422028,30.216217 
	C269.575012,29.814980 270.577332,28.980871 271.644440,28.332897 
	C270.566132,27.666430 269.516174,26.486372 268.404510,26.425097 
	C264.260834,26.196701 260.092133,26.213079 255.942154,26.375828 
	C252.717911,26.502272 252.335953,27.988878 255.390793,30.273462 
M249.996307,32.683052 
	C249.996307,30.734097 249.996307,28.785143 249.996307,26.836187 
	C249.513672,26.553493 249.031036,26.270800 248.548386,25.988104 
	C247.713257,27.138962 246.197510,28.265701 246.155746,29.444662 
	C245.921555,36.054089 246.135254,42.677940 246.004852,49.293095 
	C245.937286,52.721340 247.535645,52.557648 249.996307,51.688416 
	C249.996307,45.532978 249.996307,39.587479 249.996307,32.683052 
z"/>
<path fill="#2A2A2A" opacity="1.000000" stroke="none" 
	d="
M556.000000,145.531342 
	C555.667542,144.778809 555.045959,143.557953 555.044495,142.336380 
	C554.996277,101.059433 555.005371,59.782429 555.024658,18.505440 
	C555.024963,17.858732 555.256470,17.212135 555.690063,16.282745 
	C556.000000,59.020893 556.000000,102.041786 556.000000,145.531342 
z"/>
<path fill="#FFFFFF" opacity="1.000000" stroke="none" 
	d="
M556.000000,14.525872 
	C553.074036,8.837230 549.930542,2.900238 542.104797,1.357413 
	C546.590576,1.000000 551.181213,1.000000 556.000000,1.000000 
	C556.000000,5.348905 556.000000,9.700325 556.000000,14.525872 
z"/>
<path fill="#FFFFFF" opacity="1.000000" stroke="none" 
	d="
M542.474121,161.000000 
	C548.220093,158.577484 553.164856,154.831802 555.652588,148.088150 
	C556.000000,152.260040 556.000000,156.520065 556.000000,161.000000 
	C551.650940,161.000000 547.299622,161.000000 542.474121,161.000000 
z"/>
<path fill="#FFFFFF" opacity="1.000000" stroke="none" 
	d="
M1.000000,151.486572 
	C4.937233,154.100662 8.874466,157.201324 12.905849,160.651001 
	C9.088027,161.000000 5.176054,161.000000 1.000000,161.000000 
	C1.000000,157.993881 1.000000,154.983521 1.000000,151.486572 
z"/>
<path fill="#FFFFFF" opacity="1.000000" stroke="none" 
	d="
M12.520824,1.000000 
	C9.235250,4.337641 5.470500,7.675281 1.352875,11.006460 
	C1.000000,7.737728 1.000000,4.475457 1.000000,1.000000 
	C4.678945,1.000000 8.360297,1.000000 12.520824,1.000000 
z"/>
<path fill="#4285F2" opacity="1.000000" stroke="none" 
	d="
M38.715702,125.613281 
	C38.477390,124.156876 38.033360,122.700775 38.031258,121.244026 
	C37.992062,94.129814 38.003311,67.015533 38.017933,39.901264 
	C38.018379,39.074806 38.169048,38.248432 38.733955,37.275425 
	C53.861195,51.813892 68.504158,66.498955 82.986115,81.473915 
	C68.121971,96.380310 53.418839,110.996796 38.715702,125.613281 
z"/>
<path fill="#E74435" opacity="1.000000" stroke="none" 
	d="
M38.755852,125.942749 
	C53.418839,110.996796 68.121971,96.380310 83.166519,81.472458 
	C83.507935,81.181107 83.868660,81.190903 84.034271,81.475151 
	C91.491379,89.206558 98.782875,96.653709 106.074364,104.100861 
	C89.412666,113.798622 72.835976,123.646950 56.049438,133.123581 
	C48.857086,137.183945 42.161545,134.231934 38.755852,125.942749 
z"/>
<path fill="#34A752" opacity="1.000000" stroke="none" 
	d="
M83.868660,81.190903 
	C83.868660,81.190903 83.507935,81.181107 83.327530,81.182556 
	C68.504158,66.498955 53.861195,51.813892 38.933960,36.888626 
	C41.439972,27.619225 48.798233,24.715574 57.422890,29.622444 
	C73.589104,38.819977 89.627121,48.242832 105.789719,58.142597 
	C98.530212,66.205780 91.199432,73.698341 83.868660,81.190903 
z"/>
<path fill="#F8BA04" opacity="1.000000" stroke="none" 
	d="
M84.034271,81.475151 
	C91.199432,73.698341 98.530212,66.205780 106.018906,58.412369 
	C113.648155,62.356895 121.294655,66.325943 128.544128,70.921303 
	C136.642609,76.054848 136.179611,86.810524 127.845154,91.824356 
	C120.896439,96.004547 113.798424,99.936562 106.420448,104.039673 
	C98.782875,96.653709 91.491379,89.206558 84.034271,81.475151 
z"/>
<path fill="#F3F3F3" opacity="1.000000" stroke="none" 
	d="
M219.438904,109.308731 
	C213.767746,120.342697 203.415222,125.566261 191.509460,123.657806 
	C179.253998,121.693283 169.518555,112.130203 167.896637,100.463020 
	C166.177460,88.096184 172.291275,76.545372 183.343826,71.278778 
	C194.074020,66.165794 206.463928,68.133362 214.438232,76.523674 
	C212.695267,77.961243 210.938293,79.410378 209.105530,80.922012 
	C199.038712,74.440544 190.105804,74.050934 181.472656,82.562683 
	C175.040268,88.904587 174.270660,98.767105 178.916626,106.530846 
	C183.344482,113.930069 192.063309,117.597694 200.407150,115.570984 
	C207.778824,113.780418 212.331055,108.804916 212.818817,101.571495 
	C207.206879,101.571495 201.614273,101.571495 195.742111,101.571495 
	C195.742111,98.715546 195.742111,96.326492 195.742111,93.691917 
	C204.104279,93.691917 212.220123,93.691917 221.824753,93.691917 
	C221.077362,98.841820 220.342667,103.904259 219.438904,109.308731 
z"/>
<path fill="#F3F3F3" opacity="1.000000" stroke="none" 
	d="
M327.567322,137.759369 
	C316.294952,142.216904 307.704285,139.161987 303.039398,129.080872 
	C305.135498,128.165909 307.232391,127.250618 309.312195,126.342781 
	C314.630951,132.279190 318.264282,133.706635 322.889984,131.705246 
	C326.422363,130.176910 327.962311,126.904495 327.833984,122.015762 
	C323.666840,122.526497 319.144623,124.222610 315.314728,123.234749 
	C311.341797,122.209984 307.245422,119.226143 304.613678,115.961823 
	C299.589478,109.729942 300.542664,100.536400 305.764954,94.316887 
	C310.935638,88.158768 317.896057,86.772285 325.904022,90.178108 
	C326.495056,90.429466 327.425812,89.774849 328.214783,89.688087 
	C330.577209,89.428299 332.947632,89.241356 335.241180,89.032684 
	C335.241180,101.813034 335.457642,114.061287 335.134155,126.295265 
	C335.005615,131.156143 332.211578,135.029343 327.567322,137.759369 
M309.863342,103.942833 
	C309.844055,105.255989 309.651855,106.593925 309.835815,107.877968 
	C310.583710,113.097885 314.828339,116.807510 319.656982,116.593468 
	C324.409576,116.382797 328.165253,112.211884 328.450592,106.827591 
	C328.747223,101.231422 325.831085,96.775208 321.227112,95.789062 
	C316.127380,94.696732 312.642120,96.969582 309.863342,103.942833 
z"/>
<path fill="#F8F8F8" opacity="1.000000" stroke="none" 
	d="
M401.987335,94.000015 
	C401.992035,86.333504 401.993896,79.166962 402.010559,72.000465 
	C402.011322,71.675400 402.145538,71.350655 402.251434,70.873138 
	C409.659088,70.873138 417.165161,70.264290 424.527527,71.032562 
	C433.068207,71.923790 438.449524,79.360481 438.010620,87.995270 
	C437.612152,95.833893 430.877808,102.494438 422.633636,102.952927 
	C418.673889,103.173134 414.691742,102.990860 410.351135,102.990860 
	C410.351135,109.602867 410.351135,115.875092 410.351135,122.498756 
	C407.579865,122.498756 405.165161,122.498756 401.987335,122.498756 
	C401.987335,113.343384 401.987335,103.921692 401.987335,94.000015 
M413.675598,78.003654 
	C411.863525,77.990013 410.004669,77.603172 410.123108,80.587967 
	C410.312592,85.362511 410.173859,90.150085 410.173859,95.337997 
	C414.543549,95.337997 418.501404,95.618874 422.401337,95.263794 
	C426.839966,94.859665 429.956848,91.088127 429.992767,86.822166 
	C430.029602,82.443184 426.583801,78.503304 422.080750,78.075768 
	C419.610931,77.841278 417.102386,78.014313 413.675598,78.003654 
z"/>
<path fill="#F6F6F6" opacity="1.000000" stroke="none" 
	d="
M485.016052,109.022308 
	C485.016052,113.812195 485.016052,118.109764 485.016052,122.933487 
	C481.814240,122.158180 478.227478,124.863632 476.571503,120.118279 
	C471.590790,124.437920 466.141571,124.992584 460.363098,122.124619 
	C456.470673,120.192749 454.322662,116.971863 454.165619,112.607346 
	C454.007538,108.212692 456.019012,104.922256 459.804138,102.779984 
	C465.183960,99.735138 470.793427,99.524002 477.472931,100.927513 
	C475.980652,99.338730 474.773407,97.126892 472.938354,96.287369 
	C468.770386,94.380577 464.865540,95.467499 461.861359,99.165627 
	C459.590118,98.174049 457.504944,97.263710 455.416840,96.352089 
	C458.442688,89.755554 465.181641,86.738464 472.935303,88.320496 
	C480.422058,89.848068 484.814117,94.817924 485.006927,102.037209 
	C485.064697,104.200012 485.015991,106.365662 485.016052,109.022308 
M468.429474,116.518471 
	C473.330231,116.106041 476.136627,113.470085 477.391602,107.915199 
	C474.031067,107.594398 470.963135,106.589928 468.324951,107.264946 
	C466.032745,107.851456 463.019562,110.020576 462.484467,112.057564 
	C461.651764,115.227341 464.878540,116.182388 468.429474,116.518471 
z"/>
<path fill="#F4F4F4" opacity="1.000000" stroke="none" 
	d="
M298.174072,109.216179 
	C295.407837,119.945671 286.654510,125.656807 276.810425,123.521629 
	C266.820404,121.354813 261.109985,112.453491 263.029938,102.040779 
	C264.669464,93.149086 273.950775,86.815872 283.239319,88.250679 
	C293.350525,89.812561 299.342163,98.036209 298.174072,109.216179 
M274.483521,114.256081 
	C279.655975,117.380272 284.154816,117.137260 287.509186,113.552475 
	C290.885834,109.943909 291.304260,103.904343 288.467377,99.722351 
	C285.882263,95.911507 280.680939,94.436943 276.549896,96.343781 
	C272.329041,98.292068 269.842041,103.503380 271.105469,108.562683 
	C271.563416,110.396446 272.938751,112.001122 274.483521,114.256081 
z"/>
<path fill="#F5F5F5" opacity="1.000000" stroke="none" 
	d="
M244.499146,123.791115 
	C231.755295,125.272331 221.112900,114.990028 224.426315,101.210724 
	C226.388580,93.050377 234.073654,87.742523 242.789673,88.142982 
	C251.542435,88.545143 258.144012,94.666748 259.579285,103.711891 
	C260.846283,111.696655 255.996384,119.897682 248.274460,122.768509 
	C247.186066,123.173149 246.037628,123.416275 244.499146,123.791115 
M249.320267,99.224220 
	C245.940369,95.289459 241.838394,94.415100 237.245758,96.708023 
	C233.243256,98.706322 231.135620,103.463722 232.137894,108.193787 
	C233.080658,112.642990 235.738495,116.197136 240.396698,116.210968 
	C243.334122,116.219696 247.016235,114.825500 249.056610,112.765419 
	C252.688751,109.098228 252.378128,104.318558 249.320267,99.224220 
z"/>
<path fill="#F4F4F4" opacity="1.000000" stroke="none" 
	d="
M370.844666,116.566025 
	C373.854523,115.223892 376.447723,113.947594 379.747406,112.323586 
	C380.846497,113.036453 382.757660,114.276054 384.660217,115.510056 
	C380.797394,122.600174 372.813934,125.563759 364.603455,123.065193 
	C356.713745,120.664238 351.699097,113.112206 352.398621,104.684792 
	C353.145905,95.682327 358.717377,89.379463 366.958252,88.213799 
	C375.174011,87.051697 381.656586,91.699646 385.221069,101.693008 
	C377.548584,104.915962 369.838135,108.154869 362.025116,111.436852 
	C363.614838,115.334610 366.772034,116.384949 370.844666,116.566025 
M364.916931,103.300781 
	C368.477966,101.835960 372.039032,100.371132 375.600067,98.906311 
	C375.591797,98.232346 375.583527,97.558388 375.575256,96.884422 
	C372.743256,96.504471 369.761658,95.381180 367.113434,95.914207 
	C362.862152,96.769882 360.787781,100.156303 360.386658,105.001831 
	C361.912048,104.479996 363.093170,104.075935 364.916931,103.300781 
z"/>
<path fill="#F4F4F4" opacity="1.000000" stroke="none" 
	d="
M513.244385,107.351334 
	C509.404846,116.219513 505.338257,124.599289 502.157471,133.302795 
	C500.096771,138.941437 496.674011,139.341537 491.466461,138.032242 
	C493.578796,133.301636 495.849152,128.903748 497.467804,124.277809 
	C498.185974,122.225342 498.259003,119.445267 497.468170,117.455109 
	C494.348694,109.604752 490.760529,101.941025 487.370636,94.197372 
	C486.723236,92.718552 486.186371,91.191353 485.555664,89.576668 
	C493.701233,88.604073 493.707733,88.601379 496.500916,95.323914 
	C498.641907,100.476830 500.763916,105.637665 503.220856,111.585396 
	C506.440430,103.538651 509.300476,96.390388 512.162292,89.237762 
	C515.041626,89.237762 517.691956,89.237762 521.102844,89.237762 
	C518.442505,95.366844 515.917786,101.183548 513.244385,107.351334 
z"/>
<path fill="#FBFBFB" opacity="1.000000" stroke="none" 
	d="
M450.173950,119.773254 
	C449.064728,125.319992 445.130432,121.691978 442.345306,123.183014 
	C442.345306,105.492638 442.345306,88.298172 442.345306,70.792236 
	C444.595612,70.792236 447.008026,70.792236 450.174622,70.792236 
	C450.174622,86.920158 450.174622,103.107910 450.173950,119.773254 
z"/>
<path fill="#F4F4F4" opacity="1.000000" stroke="none" 
	d="
M348.862396,99.000008 
	C348.862396,107.108376 348.862396,114.716751 348.862396,122.590942 
	C346.157410,122.590942 343.892517,122.590942 341.214905,122.590942 
	C341.214905,105.557404 341.214905,88.370789 341.214905,70.817642 
	C343.416809,70.817642 345.798920,70.817642 348.862396,70.817642 
	C348.862396,80.037651 348.862396,89.268837 348.862396,99.000008 
z"/>
<path fill="#EBEBEB" opacity="1.000000" stroke="none" 
	d="
M184.650986,48.202370 
	C187.073288,46.735264 189.073669,45.365559 191.074036,43.995850 
	C190.852386,43.480995 190.630737,42.966141 190.409103,42.451286 
	C187.718643,42.451286 185.028183,42.451286 182.337921,42.451286 
	C182.347321,37.881828 183.941864,37.476013 194.433762,38.824825 
	C195.553482,45.047810 193.335693,49.298397 187.846497,51.449879 
	C181.504211,53.935726 173.537216,51.379982 170.330078,45.830776 
	C167.400696,40.762161 168.818100,33.553482 173.520172,29.606546 
	C178.534088,25.397850 186.030853,25.654633 192.879700,31.158964 
	C190.531372,31.571230 188.729538,32.501438 187.625397,31.973221 
	C183.262878,29.886213 179.159241,29.821005 175.660110,33.188633 
	C172.999298,35.749454 172.119110,39.099628 173.689072,42.797695 
	C175.711243,47.560921 179.489517,48.816006 184.650986,48.202370 
z"/>
<path fill="#EEEEEE" opacity="1.000000" stroke="none" 
	d="
M282.546265,46.108841 
	C279.948914,40.150299 280.121735,34.714481 284.659485,30.262962 
	C288.835388,26.166403 294.137482,25.662931 299.415588,27.604898 
	C306.706451,30.287413 309.632782,38.765568 305.994537,45.697281 
	C302.643982,52.080826 293.291443,54.532887 287.013550,50.501938 
	C285.398041,49.464645 284.193451,47.787422 282.546265,46.108841 
M301.601654,34.125095 
	C297.404114,30.144524 293.146759,29.287674 289.171478,31.916187 
	C285.452240,34.375439 284.098938,37.949482 285.454193,42.247070 
	C287.043274,47.286110 292.250092,49.691391 297.461517,47.984821 
	C302.530731,46.324821 304.289917,41.262432 301.601654,34.125095 
z"/>
<path fill="#EFEFEF" opacity="1.000000" stroke="none" 
	d="
M316.276550,27.566565 
	C319.746826,33.012604 322.979553,38.168175 327.052887,44.664326 
	C327.052887,38.670982 326.884705,34.118031 327.162140,29.592402 
	C327.238861,28.341436 328.641846,27.171787 329.436340,25.964828 
	C329.911560,26.209112 330.386780,26.453396 330.862000,26.697680 
	C330.862000,34.952381 330.862000,43.207085 330.862000,52.942436 
	C328.718292,51.660469 326.536835,51.061687 325.545929,49.635647 
	C322.092957,44.666359 319.052032,39.410744 315.157776,33.142555 
	C315.157776,40.159275 315.157776,45.871857 315.157776,51.584442 
	C314.754303,51.923355 314.350830,52.262268 313.947327,52.601177 
	C312.979340,51.639141 311.202301,50.701904 311.171906,49.711128 
	C310.938232,42.086781 311.043335,34.452049 311.043335,26.189791 
	C313.038361,26.623608 314.538696,26.949852 316.276550,27.566565 
z"/>
<path fill="#E3E3E3" opacity="1.000000" stroke="none" 
	d="
M213.673508,28.812767 
	C209.983749,29.723125 206.320755,30.230730 202.318924,30.785290 
	C202.318924,32.636070 202.318924,34.848339 202.318924,37.050827 
	C212.097534,38.016010 212.097534,38.016010 212.225891,41.132107 
	C208.944412,41.132107 205.666290,41.132107 202.206116,41.132107 
	C202.206116,43.610172 202.206116,45.721588 202.206116,47.673573 
	C205.550842,50.272747 211.446533,45.529804 214.384903,52.064091 
	C208.248917,52.064091 203.297882,52.064091 198.181229,52.064091 
	C198.181229,43.619022 198.181229,35.337391 198.181229,26.424509 
	C202.785828,26.424509 207.382645,26.352476 211.971344,26.512421 
	C212.568970,26.533251 213.124985,27.748182 213.673508,28.812767 
z"/>
<path fill="#D5D5D5" opacity="1.000000" stroke="none" 
	d="
M227.762787,40.962811 
	C227.762772,44.769775 227.762772,48.087990 227.762772,51.916821 
	C226.367126,52.011600 225.020325,52.103065 223.298370,52.220009 
	C223.298370,44.845409 223.298370,37.929096 223.298370,30.542545 
	C221.416046,30.440041 219.808212,30.512791 218.279083,30.200361 
	C217.534683,30.048264 216.937286,29.176712 216.273346,28.630844 
	C216.922302,27.871090 217.545883,26.480137 218.224289,26.452868 
	C223.029373,26.259703 227.853424,26.208067 232.651001,26.476496 
	C233.469238,26.522276 234.189484,28.319452 235.477341,29.981733 
	C232.183197,30.216459 230.232193,30.355478 227.762817,30.531435 
	C227.762817,33.933533 227.762817,37.203796 227.762787,40.962811 
z"/>
<path fill="#D5D5D5" opacity="1.000000" stroke="none" 
	d="
M254.971039,30.258579 
	C252.335953,27.988878 252.717911,26.502272 255.942154,26.375828 
	C260.092133,26.213079 264.260834,26.196701 268.404510,26.425097 
	C269.516174,26.486372 270.566132,27.666430 271.644440,28.332901 
	C270.577332,28.980871 269.575012,29.814980 268.422028,30.216217 
	C267.544861,30.521479 266.476318,30.276804 264.991089,30.276804 
	C264.991089,37.583763 264.991089,44.617489 264.991089,51.950611 
	C263.256622,52.042309 262.018585,52.107761 260.279968,52.199680 
	C260.279968,44.820091 260.279968,37.756863 260.279968,30.273462 
	C258.328979,30.273462 256.859894,30.273462 254.971039,30.258579 
z"/>
<path fill="#EFEFEF" opacity="1.000000" stroke="none" 
	d="
M249.996307,33.162518 
	C249.996307,39.587479 249.996307,45.532978 249.996307,51.688416 
	C247.535645,52.557648 245.937286,52.721340 246.004852,49.293095 
	C246.135254,42.677940 245.921555,36.054089 246.155746,29.444662 
	C246.197510,28.265701 247.713257,27.138962 248.548386,25.988104 
	C249.031036,26.270800 249.513672,26.553493 249.996307,26.836187 
	C249.996307,28.785143 249.996307,30.734097 249.996307,33.162518 
z"/>
<path fill="#040404" opacity="1.000000" stroke="none" 
	d="
M309.924683,103.531311 
	C312.642120,96.969582 316.127380,94.696732 321.227112,95.789062 
	C325.831085,96.775208 328.747223,101.231422 328.450592,106.827591 
	C328.165253,112.211884 324.409576,116.382797 319.656982,116.593468 
	C314.828339,116.807510 310.583710,113.097885 309.835815,107.877968 
	C309.651855,106.593925 309.844055,105.255989 309.924683,103.531311 
z"/>
<path fill="#050505" opacity="1.000000" stroke="none" 
	d="
M414.143463,78.003624 
	C417.102386,78.014313 419.610931,77.841278 422.080750,78.075768 
	C426.583801,78.503304 430.029602,82.443184 429.992767,86.822166 
	C429.956848,91.088127 426.839966,94.859665 422.401337,95.263794 
	C418.501404,95.618874 414.543549,95.337997 410.173859,95.337997 
	C410.173859,90.150085 410.312592,85.362511 410.123108,80.587967 
	C410.004669,77.603172 411.863525,77.990013 414.143463,78.003624 
z"/>
<path fill="#0F0F0F" opacity="1.000000" stroke="none" 
	d="
M468.054291,116.514771 
	C464.878540,116.182388 461.651764,115.227341 462.484467,112.057564 
	C463.019562,110.020576 466.032745,107.851456 468.324951,107.264946 
	C470.963135,106.589928 474.031067,107.594398 477.391602,107.915199 
	C476.136627,113.470085 473.330231,116.106041 468.054291,116.514771 
z"/>
<path fill="#030303" opacity="1.000000" stroke="none" 
	d="
M274.189514,113.983200 
	C272.938751,112.001122 271.563416,110.396446 271.105469,108.562683 
	C269.842041,103.503380 272.329041,98.292068 276.549896,96.343781 
	C280.680939,94.436943 285.882263,95.911507 288.467377,99.722351 
	C291.304260,103.904343 290.885834,109.943909 287.509186,113.552475 
	C284.154816,117.137260 279.655975,117.380272 274.189514,113.983200 
z"/>
<path fill="#050505" opacity="1.000000" stroke="none" 
	d="
M249.558533,99.527679 
	C252.378128,104.318558 252.688751,109.098228 249.056610,112.765419 
	C247.016235,114.825500 243.334122,116.219696 240.396698,116.210968 
	C235.738495,116.197136 233.080658,112.642990 232.137894,108.193787 
	C231.135620,103.463722 233.243256,98.706322 237.245758,96.708023 
	C241.838394,94.415100 245.940369,95.289459 249.558533,99.527679 
z"/>
<path fill="#121212" opacity="1.000000" stroke="none" 
	d="
M364.595642,103.486328 
	C363.093170,104.075935 361.912048,104.479996 360.386658,105.001831 
	C360.787781,100.156303 362.862152,96.769882 367.113434,95.914207 
	C369.761658,95.381180 372.743256,96.504471 375.575256,96.884422 
	C375.583527,97.558388 375.591797,98.232346 375.600067,98.906311 
	C372.039032,100.371132 368.477966,101.835960 364.595642,103.486328 
z"/>
<path fill="#050505" opacity="1.000000" stroke="none" 
	d="
M301.820923,34.466965 
	C304.289917,41.262432 302.530731,46.324821 297.461517,47.984821 
	C292.250092,49.691391 287.043274,47.286110 285.454193,42.247070 
	C284.098938,37.949482 285.452240,34.375439 289.171478,31.916187 
	C293.146759,29.287674 297.404114,30.144524 301.820923,34.466965 
z"/>
</svg>